<svg id="Layer_1" data-name="Layer 1" xmlns="http://www.w3.org/2000/svg" viewBox="0 0 140 55"><defs><style>.cls-1{fill:#2977bc;}.cls-2{fill:#153e35;}.cls-3{fill:#202721;}.cls-4{fill:#7d9cc0;}.cls-5{fill:#fff;}.cls-6{fill:#5bc0c9;}</style></defs><path class="cls-1" d="M93,36.34a4.8,4.8,0,0,0,4.86-3.55H95a2.08,2.08,0,0,1-2,1.24,2.28,2.28,0,0,1-2.28-2.12h7.3A7.62,7.62,0,0,0,98,31a4.79,4.79,0,0,0-5-5.1,5.23,5.23,0,0,0,0,10.46Zm0-8.19a2.15,2.15,0,0,1,2.18,1.7h-4.4A2.19,2.19,0,0,1,93,28.15Z"/><rect class="cls-1" x="72.6" y="26.12" width="2.94" height="10.01"/><path class="cls-1" d="M74.07,25.16a1.77,1.77,0,1,0-1.75-1.77A1.76,1.76,0,0,0,74.07,25.16Z"/><path class="cls-1" d="M93.5,42.81A4.33,4.33,0,0,0,89,47.31v5.75H91.9V47.25a1.6,1.6,0,0,1,3.19,0v5.81H98V47.31A4.32,4.32,0,0,0,93.5,42.81Z"/><path class="cls-1" d="M82.6,42.81a5.23,5.23,0,1,0,5.05,5.25A5.09,5.09,0,0,0,82.6,42.81Zm0,7.72a2.24,2.24,0,0,1-2.09-2.46,2.13,2.13,0,1,1,4.18,0A2.24,2.24,0,0,1,82.6,50.53Z"/><path class="cls-1" d="M63.43,31.43h.78c1.83,0,2.7,1.54,3.44,4.7h3c-.4-2.33-1.38-4.5-2.46-5.36a4.32,4.32,0,0,0,2.43-4A4.57,4.57,0,0,0,65.83,22H60.48V36.13h3Zm0-6.8h2.08a2,2,0,0,1,2,2.11,1.94,1.94,0,0,1-2,2.1H63.43Z"/><path class="cls-1" d="M106.63,43.58a4.22,4.22,0,0,0-2.5-.77A5,5,0,0,0,99.32,48a5.14,5.14,0,1,0,10.27,0V39h-3Zm-2.16,6.89A2.32,2.32,0,0,1,102.28,48a2.29,2.29,0,0,1,2.19-2.42A2.31,2.31,0,0,1,106.65,48,2.35,2.35,0,0,1,104.47,50.47Z"/><path class="cls-1" d="M102.25,30.33c0-1.07.93-1.9,2.58-1.48V26a7.73,7.73,0,0,0-1-.07,4.23,4.23,0,0,0-4.57,4.5v5.75h2.94Z"/><path class="cls-1" d="M116,42.81a5.23,5.23,0,0,0,0,10.45,4.78,4.78,0,0,0,4.86-3.55H118a2.07,2.07,0,0,1-2,1.24,2.27,2.27,0,0,1-2.28-2.12H121a7.38,7.38,0,0,0,.06-.93A4.8,4.8,0,0,0,116,42.81Zm-2.2,4a2.27,2.27,0,0,1,4.4,0Z"/><path class="cls-1" d="M122.33,47.31v5.75h2.94V47.25c0-1.07.92-1.89,2.58-1.48V42.88a6.39,6.39,0,0,0-1-.07A4.23,4.23,0,0,0,122.33,47.31Z"/><path class="cls-1" d="M134.3,47c-1.11-.3-2.05-.53-2.05-1.12s.39-.71,1-.71a1.11,1.11,0,0,1,1.24,1h3.21c0-2-1.69-3.36-4.33-3.36-3,0-4.47,1.34-4.47,3.17,0,1.66,1.35,2.37,2.73,2.82s2.9.65,2.9,1.35c0,.46-.41.71-1.12.71s-1.43-.32-1.49-1.15h-3.19c.08,2.32,1.81,3.55,4.58,3.55S137.89,52,137.89,50,135.91,47.43,134.3,47Z"/><path class="cls-1" d="M83.72,36.13a52.41,52.41,0,0,0,3.81-10H84.42a26.44,26.44,0,0,1-2.19,6.54A26.86,26.86,0,0,1,80,26.12h-3.1a51.75,51.75,0,0,0,3.8,10Z"/><path class="cls-1" d="M74.58,39l-1.66,9.62L70.41,39H67.74l-2.51,9.62L63.57,39H60.34L63.05,51.6a2,2,0,0,0,2,1.66,2,2,0,0,0,2-1.56l2-7.36,2,7.36a2,2,0,0,0,2,1.56,2,2,0,0,0,2-1.66L77.81,39Z"/><path class="cls-2" d="M69.58,15.43a2.74,2.74,0,0,1,2.74-2.89,2.19,2.19,0,0,1,1.67.73.15.15,0,0,0,.19,0l.67-.58a.18.18,0,0,1,.17,0l.22.1a.13.13,0,0,1,.09.15l-.13.91v2.76a.45.45,0,0,0,.44.48c.14,0,.22.1.22.23v.14a.2.2,0,0,1-.15.2l-.85.22-.72.44a.22.22,0,0,1-.27,0l-.06,0a.17.17,0,0,1-.07-.19l0-.24c0-.13-.07-.13-.13-.07a1.89,1.89,0,0,1-1.53.59A2.67,2.67,0,0,1,69.58,15.43Zm4.23,0c0-.79-.34-2-1.38-2S71,14.64,71,15.43s.26,2,1.39,2S73.81,16.26,73.81,15.43Z"/><path class="cls-2" d="M76.29,17.94v-.16a.23.23,0,0,1,.22-.22.44.44,0,0,0,.45-.47V14.36a.45.45,0,0,0-.45-.48c-.13,0-.22-.1-.22-.23v-.14a.21.21,0,0,1,.16-.2l.85-.22.72-.44a.21.21,0,0,1,.27,0l.06,0a.17.17,0,0,1,.07.19l0,.28c0,.09.09.12.15.06a2.23,2.23,0,0,1,1.68-.7,1.76,1.76,0,0,1,2,1.89v2.66a.44.44,0,0,0,.44.47.22.22,0,0,1,.23.22v.16a.22.22,0,0,1-.23.22H80.26a.22.22,0,0,1-.22-.22v-.16a.23.23,0,0,1,.22-.22.43.43,0,0,0,.44-.47V14.51a1,1,0,0,0-1-1.07,1.29,1.29,0,0,0-1.24,1.45v2.2a.43.43,0,0,0,.44.47.22.22,0,0,1,.22.22v.16a.22.22,0,0,1-.22.22H76.51A.22.22,0,0,1,76.29,17.94Z"/><path class="cls-2" d="M83,15.43a2.75,2.75,0,0,1,2.75-2.89,2.09,2.09,0,0,1,1.27.39.09.09,0,0,0,.15-.07v-.92a.46.46,0,0,0-.45-.49.23.23,0,0,1-.22-.22v-.14a.2.2,0,0,1,.16-.2l1-.23.72-.44a.26.26,0,0,1,.27,0l.06,0c.07,0,.08.1.07.19l-.11.84v5.26a.44.44,0,0,0,.44.48c.13,0,.22.1.22.23v.14a.2.2,0,0,1-.15.2l-.85.22-.72.44a.22.22,0,0,1-.27,0l-.07,0a.18.18,0,0,1-.06-.19l0-.24c0-.14-.07-.13-.12-.08a2.09,2.09,0,0,1-1.54.6A2.67,2.67,0,0,1,83,15.43Zm4.23,0c0-.79-.33-2-1.37-2s-1.39,1.22-1.39,2,.26,2,1.39,2S87.27,16.26,87.27,15.43Z"/><path class="cls-2" d="M89.56,15.43a2.75,2.75,0,0,1,2.75-2.89,2.19,2.19,0,0,1,1.67.73.15.15,0,0,0,.19,0l.66-.58a.2.2,0,0,1,.18,0l.22.1a.13.13,0,0,1,.09.15l-.13.91v2.76a.44.44,0,0,0,.44.48c.13,0,.22.1.22.23v.14a.2.2,0,0,1-.15.2l-.86.22-.72.44a.2.2,0,0,1-.26,0l-.07,0a.17.17,0,0,1-.06-.19l0-.24c0-.13-.08-.13-.13-.07a1.9,1.9,0,0,1-1.53.59A2.67,2.67,0,0,1,89.56,15.43Zm4.23,0c0-.79-.33-2-1.37-2s-1.4,1.22-1.4,2,.27,2,1.4,2S93.79,16.26,93.79,15.43Z"/><path class="cls-2" d="M98.41,13.75v3.34a.43.43,0,0,0,.44.47.22.22,0,0,1,.22.22v.16a.22.22,0,0,1-.22.22H96.5a.22.22,0,0,1-.22-.22v-.16a.23.23,0,0,1,.22-.22.43.43,0,0,0,.44-.47V14.37a.45.45,0,0,0-.44-.48c-.13,0-.22-.1-.22-.22v-.15a.19.19,0,0,1,.16-.2l1-.22.72-.44a.22.22,0,0,1,.26,0l.07,0a.17.17,0,0,1,.07.19ZM96.77,11a.91.91,0,0,0,.91.91.93.93,0,0,0,.93-.91.94.94,0,0,0-.93-.93A.92.92,0,0,0,96.77,11Z"/><path class="cls-2" d="M60.48,17.93v-.29a.24.24,0,0,1,.24-.25c.3-.05.49-.19.5-.5l.24-5.35c0-.23-.05-.32-.28-.38s-.26-.12-.26-.27v-.24c0-.18.12-.26.32-.24H63c.17,0,.26,0,.3.18l1.46,4.83c0,.12.15.12.19,0l1.6-4.83c0-.15.13-.2.29-.18h1.71c.2,0,.32.06.32.24v.24c0,.15-.05.23-.25.27s-.3.15-.29.38l.26,5.35a.5.5,0,0,0,.5.5c.18,0,.26.1.26.23v.31a.2.2,0,0,1-.2.23h-2.6a.26.26,0,0,1-.27-.23v-.31a.23.23,0,0,1,.24-.23.5.5,0,0,0,.5-.51l-.15-4.07c0-.13-.14-.15-.18,0L65,18a.26.26,0,0,1-.24.18h-.36a.26.26,0,0,1-.24-.18l-1.62-5.26c0-.12-.18-.12-.18,0l-.15,4.13a.43.43,0,0,0,.4.51.24.24,0,0,1,.24.25v.29a.26.26,0,0,1-.26.23h-1.8A.26.26,0,0,1,60.48,17.93Z"/><path class="cls-3" d="M36.56,23.72l1.65,3.49a14.24,14.24,0,0,1,1.31,5.12l.15,2.3a.92.92,0,0,0,.93.87h0a2.57,2.57,0,0,0,2.46-1.82l.36-1.2a11.72,11.72,0,0,0-.26-7.6l-.75-2Z"/><path class="cls-4" d="M53.23,18.2a3.2,3.2,0,0,1-1.42-1l-1.22-1.52A13,13,0,0,0,42.65,11l-2.82-.48a23.5,23.5,0,0,0-27,18.55l-1.37,7.1A8.27,8.27,0,0,1,8.6,41L5,43.9C2.52,46,.4,49.26,1.32,51.78,2.1,53.92,4.78,55,9.3,55h.88a5.46,5.46,0,0,0,5.1-3.5h0a7.76,7.76,0,0,0,.24-4.9l-.76-2.7A4.9,4.9,0,0,1,17,38.38L33.8,28.3l-1.65,3.11a6.35,6.35,0,0,0,.28,6.45l.89,1.38A1,1,0,0,0,35,39.05l.7-1.84a28.85,28.85,0,0,0,1.9-10.27V26a14.57,14.57,0,0,1,7-1.77h6.68a3,3,0,0,0,2.78-2L54.54,21A2.17,2.17,0,0,0,53.23,18.2Z"/><circle class="cls-3" cx="47.59" cy="18.54" r="0.79"/><path class="cls-3" d="M53,19.57a.42.42,0,0,0-.56.24l-.27.7a.43.43,0,0,0,.24.56.44.44,0,0,0,.56-.25l.27-.7A.42.42,0,0,0,53,19.57Z"/><circle class="cls-5" cx="33.69" cy="14.42" r="1.54"/><circle class="cls-5" cx="37.7" cy="17.33" r="1.05"/><circle class="cls-5" cx="27.73" cy="18.75" r="0.79"/><path class="cls-6" d="M0,17.66a8.8,8.8,0,0,1,7.93.61c4.52,2.44,4,7,1.15,4.22C7.63,21,4.9,17.58,0,17.66Z"/><path class="cls-6" d="M49.91,42.08c-3,2.21-8.83,7.36-17.87,6.46,0,0,4.17,4.14,14.51.53a4.13,4.13,0,0,0,.52,3.22l1.42-2.76A7.39,7.39,0,0,1,50.64,47C55.44,43.4,54.7,38.54,49.91,42.08Z"/><path class="cls-6" d="M32.7,42.51c-2.48,0-7.76.63-11.88-3.63,0,0-.1,3.79,6.67,6a3.27,3.27,0,0,0-1.13,2.34l2.54-1.36a3.27,3.27,0,0,1,1.63-.36C34.89,45.73,36.82,42.51,32.7,42.51Z"/></svg>