<svg id="Layer_1" data-name="Layer 1" xmlns="http://www.w3.org/2000/svg" viewBox="0 0 140 55"><defs><style>.cls-1{fill:#e51147;}.cls-2{fill:#153e35;}.cls-3{fill:#2977bc;}.cls-4{fill:#ffd208;}.cls-5{fill:#e4032e;}.cls-6{fill:#fff;}</style></defs><path class="cls-1" d="M67.58,25.29a1.78,1.78,0,1,0-1.76-1.78A1.77,1.77,0,0,0,67.58,25.29Z"/><path class="cls-1" d="M93.18,50.12V48.29a5.16,5.16,0,1,0-5.49,5.23,3.59,3.59,0,0,0,3-1.29,2.06,2.06,0,0,0,2.2,1.29,4.2,4.2,0,0,0,1.29-.21V51.07C93.42,51.11,93.18,50.87,93.18,50.12ZM88,50.75a2.31,2.31,0,0,1-2.2-2.44A2.21,2.21,0,1,1,88,50.75Z"/><path class="cls-1" d="M74.86,50.12V48.29a5.16,5.16,0,1,0-5.49,5.23,3.59,3.59,0,0,0,2.95-1.29,2.05,2.05,0,0,0,2.2,1.29,4.2,4.2,0,0,0,1.29-.21V51.07C75.09,51.11,74.86,50.87,74.86,50.12Zm-5.15.63a2.31,2.31,0,0,1-2.2-2.44,2.21,2.21,0,1,1,2.2,2.44Z"/><rect class="cls-1" x="107.07" y="43.26" width="2.95" height="10.06"/><path class="cls-1" d="M108.55,38.74a1.78,1.78,0,1,0,1.75,1.78A1.77,1.77,0,0,0,108.55,38.74Z"/><path class="cls-1" d="M82,36.51a5.11,5.11,0,0,0,5.15-5.28V22.15h-3v4.63A4.27,4.27,0,0,0,81.69,26a5.05,5.05,0,0,0-4.84,5.22A5.11,5.11,0,0,0,82,36.51Zm0-7.73a2.32,2.32,0,0,1,2.19,2.44,2.21,2.21,0,1,1-4.39,0A2.31,2.31,0,0,1,82,28.78Z"/><path class="cls-1" d="M102.05,43.78A4.33,4.33,0,0,0,99.54,43a5,5,0,0,0-4.84,5.22,5.16,5.16,0,1,0,10.32,0V39.15h-3Zm-2.18,6.93a2.33,2.33,0,0,1-2.19-2.49,2.3,2.3,0,0,1,2.19-2.44,2.34,2.34,0,0,1,2.2,2.44A2.37,2.37,0,0,1,99.87,50.71Z"/><rect class="cls-1" x="66.1" y="26.25" width="2.95" height="10.06"/><path class="cls-1" d="M70.94,30.53v5.78h3V30.47c0-1.07.94-1.9,2.6-1.48V26.08a8,8,0,0,0-1-.07A4.25,4.25,0,0,0,70.94,30.53Z"/><path class="cls-1" d="M132.23,48.13a4.82,4.82,0,0,0-5-5.11,5.25,5.25,0,0,0,0,10.5A4.81,4.81,0,0,0,132.06,50h-2.88a2.07,2.07,0,0,1-2.06,1.25,2.29,2.29,0,0,1-2.28-2.13h7.33A7.66,7.66,0,0,0,132.23,48.13ZM125,47a2.29,2.29,0,0,1,4.42,0Z"/><path class="cls-1" d="M76.9,47.53v5.78h2.95V47.48c0-1.07.94-1.9,2.6-1.49V43.08a8,8,0,0,0-1-.06A4.24,4.24,0,0,0,76.9,47.53Z"/><path class="cls-1" d="M117.37,47.22c-1.12-.31-2.06-.54-2.06-1.13s.39-.72,1-.72a1.13,1.13,0,0,1,1.25,1h3.22c0-2-1.7-3.37-4.35-3.37-3,0-4.49,1.34-4.49,3.18,0,1.67,1.36,2.38,2.75,2.83s2.91.66,2.91,1.36c0,.46-.41.71-1.12.71S115,50.78,115,50h-3.2c.08,2.33,1.81,3.57,4.59,3.57s4.6-1.29,4.6-3.27S119,47.66,117.37,47.22Z"/><path class="cls-1" d="M62.55,29.05a3.22,3.22,0,0,0,1.61-3c0-2.46-1.76-3.94-4.22-3.94H54.57V36.31h5.66c3,0,4.3-1.81,4.3-4.2A3.11,3.11,0,0,0,62.55,29.05Zm-5-4.46h1.93a1.65,1.65,0,1,1,0,3.29H57.52Zm2.18,9.23H57.52V30.26H59.7a1.78,1.78,0,1,1,0,3.56Z"/><path class="cls-1" d="M59.46,39.15H54.57V53.31h3V49h1.92a4.92,4.92,0,0,0,0-9.83Zm-.31,7.22H57.54V41.76h1.61a2.32,2.32,0,0,1,0,4.61Z"/><path class="cls-2" d="M63.71,15.51a2.76,2.76,0,0,1,2.76-2.9,2.21,2.21,0,0,1,1.68.73.15.15,0,0,0,.19,0l.67-.58a.19.19,0,0,1,.18,0l.22.1a.15.15,0,0,1,.09.15l-.14.92v2.76a.46.46,0,0,0,.45.49c.13,0,.22.1.22.23v.14a.2.2,0,0,1-.15.2l-.86.22-.72.45a.23.23,0,0,1-.27,0L68,18.32a.16.16,0,0,1-.06-.19l0-.24c0-.12-.08-.12-.13-.07a1.91,1.91,0,0,1-1.54.59A2.68,2.68,0,0,1,63.71,15.51Zm4.25,0c0-.79-.33-2-1.38-2s-1.4,1.23-1.4,2,.27,2.06,1.4,2.06S68,16.34,68,15.51Z"/><path class="cls-2" d="M70.46,18v-.15a.25.25,0,0,1,.22-.23.44.44,0,0,0,.45-.47V14.44a.46.46,0,0,0-.45-.49.23.23,0,0,1-.22-.22v-.15a.23.23,0,0,1,.16-.2l.85-.22.73-.44a.19.19,0,0,1,.26,0l.07,0a.17.17,0,0,1,.07.19l0,.28c0,.09.1.12.16.07a2.22,2.22,0,0,1,1.69-.71,1.76,1.76,0,0,1,2,1.9v2.67a.43.43,0,0,0,.44.47.23.23,0,0,1,.22.23V18a.22.22,0,0,1-.22.23H74.44a.22.22,0,0,1-.22-.23v-.15a.25.25,0,0,1,.22-.23.44.44,0,0,0,.45-.47V14.59a1,1,0,0,0-1-1.07A1.28,1.28,0,0,0,72.6,15v2.21a.43.43,0,0,0,.44.47.23.23,0,0,1,.22.23V18a.22.22,0,0,1-.22.23H70.68A.22.22,0,0,1,70.46,18Z"/><path class="cls-2" d="M77.24,15.51A2.76,2.76,0,0,1,80,12.61a2,2,0,0,1,1.28.4.09.09,0,0,0,.14-.08V12a.46.46,0,0,0-.44-.49c-.13,0-.22-.09-.22-.22v-.14a.19.19,0,0,1,.15-.2l1-.22.72-.45a.24.24,0,0,1,.27,0l.07,0a.16.16,0,0,1,.06.19l-.11.84v5.28a.46.46,0,0,0,.45.49c.13,0,.22.1.22.23v.14a.2.2,0,0,1-.16.2l-.85.22-.73.45a.22.22,0,0,1-.26,0l-.07-.05c-.07,0-.08-.1-.07-.19l0-.24c0-.13-.07-.12-.12-.08a2.09,2.09,0,0,1-1.55.6A2.68,2.68,0,0,1,77.24,15.51Zm4.25,0c0-.79-.33-2-1.38-2s-1.4,1.23-1.4,2,.27,2.06,1.4,2.06S81.49,16.34,81.49,15.51Z"/><path class="cls-2" d="M83.79,15.51a2.76,2.76,0,0,1,2.76-2.9,2.21,2.21,0,0,1,1.68.73.15.15,0,0,0,.19,0l.66-.58a.2.2,0,0,1,.18,0l.23.1a.13.13,0,0,1,.08.15l-.13.92v2.76a.46.46,0,0,0,.45.49c.13,0,.22.1.22.23v.14a.21.21,0,0,1-.16.2l-.85.22-.73.45a.22.22,0,0,1-.26,0L88,18.32c-.07,0-.08-.1-.07-.19l0-.24c0-.12-.08-.12-.14-.07a1.87,1.87,0,0,1-1.53.59A2.68,2.68,0,0,1,83.79,15.51Zm4.25,0c0-.79-.33-2-1.38-2s-1.4,1.23-1.4,2,.27,2.06,1.4,2.06S88,16.34,88,15.51Z"/><path class="cls-2" d="M92.67,13.83v3.35a.43.43,0,0,0,.45.47.24.24,0,0,1,.22.23V18a.22.22,0,0,1-.22.23H90.76a.22.22,0,0,1-.22-.23v-.15a.25.25,0,0,1,.22-.23.43.43,0,0,0,.45-.47V14.45a.46.46,0,0,0-.45-.49.23.23,0,0,1-.22-.22V13.6a.21.21,0,0,1,.15-.21l1-.22.72-.44a.23.23,0,0,1,.27,0l.07,0a.17.17,0,0,1,.07.19ZM91,11.09a.91.91,0,0,0,.91.91.92.92,0,0,0,.93-.91.93.93,0,0,0-.93-.93A.92.92,0,0,0,91,11.09Z"/><path class="cls-2" d="M54.57,18v-.29c0-.14.09-.23.25-.25s.49-.19.5-.5l.24-5.38c0-.23-.05-.32-.28-.37S55,11.1,55,11v-.24c0-.18.12-.26.32-.24h1.77c.17,0,.26,0,.3.18l1.47,4.85c0,.12.14.12.19,0l1.6-4.85c0-.15.13-.2.3-.18h1.71c.2,0,.33.06.33.24V11c0,.15-.06.23-.26.28s-.3.14-.29.37L62.73,17c0,.31.2.46.5.5s.25.1.25.23V18c0,.14-.06.24-.2.24H60.67A.27.27,0,0,1,60.4,18v-.31a.24.24,0,0,1,.25-.23.5.5,0,0,0,.5-.51L61,12.88c0-.13-.13-.15-.18,0l-1.74,5.22a.27.27,0,0,1-.25.18h-.35a.28.28,0,0,1-.25-.18L56.6,12.79c0-.12-.19-.12-.19,0L56.27,17a.43.43,0,0,0,.4.51.24.24,0,0,1,.24.25V18a.26.26,0,0,1-.27.24h-1.8A.27.27,0,0,1,54.57,18Z"/><path class="cls-3" d="M39.54,6.5l-.41-1.88L36.34,14.4v0A20.66,20.66,0,0,0,34.56,6V6l-.33,1.13a20.64,20.64,0,0,0-.86,5.9V16.9L30.31,8.33a3.72,3.72,0,0,0-1,3.07l1.11,7.42-4.34-7h0a6.71,6.71,0,0,0,.2,4.06l2,5.33a4.67,4.67,0,0,0-2,.68,4.73,4.73,0,0,0-1.56,6.51l3.95,1.48,10.23-12.9.49-2A18.78,18.78,0,0,0,39.54,6.5Z"/><path class="cls-4" d="M36,18.43a3.28,3.28,0,0,0-1.72,3.62A3.29,3.29,0,0,0,29.5,25a3.26,3.26,0,0,0,.32,1.39l-.51,0a5.74,5.74,0,0,0-4.41,2.05l3.6,4.48,8.73-10.22c.62-1.75,1.15-3.53,1.6-5.32l.1-.42Z"/><path class="cls-3" d="M12.15,10A25.66,25.66,0,0,0,9.4,8.18L5.51,6a4.08,4.08,0,0,0,1,3.37L11,14.07.64,9.48a5.32,5.32,0,0,0,2.23,4l7.31,5.14L0,16.48a4.6,4.6,0,0,0,2.6,3l7.71,3.29H.4a8.23,8.23,0,0,0,4.38,2.42l7,1.38L3.94,28.22a6.88,6.88,0,0,0,4.23,1.39l6.6-.1L7.65,32.68a5.46,5.46,0,0,0,3.47.37l4.58-1c0,.11,0,.22,0,.34a5.84,5.84,0,0,0,11.67,0Z"/><path class="cls-4" d="M18,15.61l-3.06-3.14A25,25,0,0,0,12.15,10v4.14a12.55,12.55,0,0,0,3.35,8.56,4.89,4.89,0,0,0,3.43,7,4.8,4.8,0,0,0-.25,1.52,4.9,4.9,0,0,0,8,3.76,5.85,5.85,0,0,0,.65-2.67Z"/><path class="cls-3" d="M18.64,40.16,1.88,55.26a10.07,10.07,0,0,0,6-1.94l8.44-6.19-4.37,7.22a8.61,8.61,0,0,0,4.44-3.09L23.29,42Z"/><path class="cls-5" d="M41.22,27l-6.8,2.6,1.37-3.18c.26-.62.52-1.24.76-1.87s.47-1.22.68-1.83l-5.68,4.62a9.79,9.79,0,0,0-2.76,3.56,18.71,18.71,0,0,1-2.24-5.19l-1.34-5.13a12,12,0,0,0-5-7l-3.47-2.3v7.27A17.11,17.11,0,0,0,20,28.59l5.23,7.23L0,50.43H0a24.4,24.4,0,0,0,10.39-2.32L44,32.3V27.21A3.14,3.14,0,0,0,41.22,27Z"/><path class="cls-6" d="M44,27.2l-1.34.33a5,5,0,0,0-3.56,3.33l-.24.75a.53.53,0,0,0,.51.69H44V27.21Z"/><path class="cls-4" d="M48.7,30.48A3.8,3.8,0,0,0,44,27.21V32.3h.17a2.73,2.73,0,0,0,2-.88l.32-.34a.47.47,0,0,1,.77.14l.83,1.92A3.87,3.87,0,0,0,48.7,30.48Z"/><circle class="cls-5" cx="42.11" cy="29.75" r="0.88"/><path class="cls-4" d="M23.29,42l1.19-1.57a11.32,11.32,0,0,1,6.18-4.15l10.86-2.86-2,3A12.63,12.63,0,0,1,29,42Z"/></svg>