<svg id="Layer_1" data-name="Layer 1" xmlns="http://www.w3.org/2000/svg" viewBox="0 0 140 55"><defs><style>.cls-1{fill:#153e35;}.cls-2{fill:#323578;}.cls-3{fill:#fff;}.cls-4{fill:#f3912d;}</style></defs><path class="cls-1" d="M75.53,15.44a2.76,2.76,0,0,1,2.76-2.91,2.24,2.24,0,0,1,1.68.74.15.15,0,0,0,.19,0l.66-.58a.18.18,0,0,1,.18,0l.22.1a.13.13,0,0,1,.09.15l-.13.91v2.77a.45.45,0,0,0,.44.49c.14,0,.23.1.23.23v.14a.21.21,0,0,1-.16.2l-.86.22-.72.45a.26.26,0,0,1-.27,0l-.06-.05c-.07,0-.08-.1-.07-.19l.05-.24c0-.13-.08-.13-.14-.07a1.9,1.9,0,0,1-1.53.59A2.68,2.68,0,0,1,75.53,15.44Zm4.25,0c0-.79-.34-2-1.38-2s-1.4,1.23-1.4,2,.26,2,1.4,2S79.78,16.27,79.78,15.44Z"/><path class="cls-1" d="M82.28,18v-.15a.23.23,0,0,1,.22-.23.43.43,0,0,0,.44-.47V14.37a.45.45,0,0,0-.44-.49.23.23,0,0,1-.22-.22v-.15a.21.21,0,0,1,.15-.2l.86-.22.72-.45a.22.22,0,0,1,.27,0l.07,0a.18.18,0,0,1,.06.19l0,.28a.09.09,0,0,0,.15.07,2.23,2.23,0,0,1,1.69-.72,1.77,1.77,0,0,1,2,1.91v2.67a.44.44,0,0,0,.45.47.22.22,0,0,1,.22.23V18a.22.22,0,0,1-.22.22H86.26A.22.22,0,0,1,86,18v-.15a.23.23,0,0,1,.22-.23.43.43,0,0,0,.44-.47v-2.6a1,1,0,0,0-1-1.06,1.29,1.29,0,0,0-1.25,1.45v2.21a.44.44,0,0,0,.45.47.22.22,0,0,1,.22.23V18a.22.22,0,0,1-.22.22H82.5A.22.22,0,0,1,82.28,18Z"/><path class="cls-1" d="M89.06,15.44a2.76,2.76,0,0,1,2.76-2.91,2.14,2.14,0,0,1,1.28.4.09.09,0,0,0,.14-.07v-.93a.45.45,0,0,0-.44-.49c-.14,0-.23-.1-.23-.22v-.14a.2.2,0,0,1,.16-.2l1-.23.72-.44a.24.24,0,0,1,.27,0l.06,0a.16.16,0,0,1,.07.18l-.11.85v5.28a.45.45,0,0,0,.44.49c.14,0,.23.1.23.23v.14a.21.21,0,0,1-.16.2l-.86.22-.72.45a.26.26,0,0,1-.27,0l-.06-.05c-.07,0-.08-.1-.07-.19l.05-.24c0-.14-.07-.13-.13-.08a2.09,2.09,0,0,1-1.54.6A2.68,2.68,0,0,1,89.06,15.44Zm4.25,0c0-.79-.34-2-1.38-2s-1.4,1.23-1.4,2,.26,2,1.4,2S93.31,16.27,93.31,15.44Z"/><path class="cls-1" d="M95.61,15.44a2.76,2.76,0,0,1,2.76-2.91,2.24,2.24,0,0,1,1.68.74.14.14,0,0,0,.18,0l.67-.58a.17.17,0,0,1,.18,0l.22.1a.13.13,0,0,1,.09.15l-.13.91v2.77a.45.45,0,0,0,.44.49c.14,0,.23.1.23.23v.14a.21.21,0,0,1-.16.2l-.86.22-.72.45a.26.26,0,0,1-.27,0l-.06-.05c-.07,0-.08-.1-.07-.19l0-.24c0-.13-.07-.13-.13-.07a1.9,1.9,0,0,1-1.53.59A2.68,2.68,0,0,1,95.61,15.44Zm4.25,0c0-.79-.34-2-1.38-2s-1.4,1.23-1.4,2,.26,2,1.4,2S99.86,16.27,99.86,15.44Z"/><path class="cls-1" d="M104.49,13.76v3.35a.44.44,0,0,0,.45.47.22.22,0,0,1,.22.23V18a.22.22,0,0,1-.22.22h-2.36a.22.22,0,0,1-.22-.22v-.15a.23.23,0,0,1,.22-.23.43.43,0,0,0,.44-.47V14.38a.45.45,0,0,0-.44-.49c-.14,0-.22-.1-.22-.22v-.15a.21.21,0,0,1,.15-.2l1-.22.72-.44a.22.22,0,0,1,.27,0l.07,0a.18.18,0,0,1,.06.19ZM102.85,11a.91.91,0,0,0,.91.91.92.92,0,0,0,.93-.91.93.93,0,0,0-.93-.93A.92.92,0,0,0,102.85,11Z"/><path class="cls-1" d="M66.39,18v-.29a.24.24,0,0,1,.24-.25c.3-.05.49-.19.5-.51l.25-5.37c0-.23-.06-.32-.29-.38s-.26-.12-.26-.27v-.24c0-.19.13-.26.33-.24h1.76a.25.25,0,0,1,.31.18l1.46,4.85c0,.12.15.12.19,0l1.6-4.85a.24.24,0,0,1,.3-.18H74.5c.2,0,.32,0,.32.24v.24c0,.15-.06.23-.26.27s-.3.15-.28.38l.26,5.37a.5.5,0,0,0,.5.51c.18,0,.26.1.26.23V18a.2.2,0,0,1-.2.23H72.48a.26.26,0,0,1-.26-.23v-.31a.23.23,0,0,1,.24-.23.5.5,0,0,0,.5-.52l-.15-4.08c0-.13-.14-.15-.18,0L70.88,18a.25.25,0,0,1-.24.17h-.36A.25.25,0,0,1,70,18l-1.63-5.29c0-.12-.19-.12-.19,0l-.14,4.15a.44.44,0,0,0,.4.52.24.24,0,0,1,.24.25V18a.26.26,0,0,1-.26.23h-1.8A.26.26,0,0,1,66.39,18Z"/><path class="cls-2" d="M58.49,26.56a4.69,4.69,0,0,0-3.27,2.1l-.53.82a5.26,5.26,0,0,1-2,1.84l-.55.27a6.85,6.85,0,0,0-.85-3.19l-2.53-4.57,3.56-6.93a3.91,3.91,0,0,0,.37-2.6,3.79,3.79,0,0,0-3.72-3H47.78a7.55,7.55,0,0,0-5.34,2.21l-1.68,1.68-3.25-1.63a9.4,9.4,0,0,0-8.4,0l-3.28,1.65-1.7-1.7a7.55,7.55,0,0,0-5.34-2.21H17.73a3.85,3.85,0,0,0-3.07,1.46,3.78,3.78,0,0,0-.39,4.08l3,5.8-4.13,5.1,1.43,1.48a7.59,7.59,0,0,1,1.74,2.91L17.86,37l-3.7-2.13-1.3-3.44a5.32,5.32,0,0,0-2-2.53l-1.53-1v1.31A5.89,5.89,0,0,0,10.08,32L11,33.7l-3-2.25a4.55,4.55,0,0,0-2.75-.92H0l2.21,1.18A6.42,6.42,0,0,1,3.84,33l.69.73A5.35,5.35,0,0,0,8.4,35.36h1.94l-2.7,1.49a7.17,7.17,0,0,1-3.23.89l-1.9,0,1.89,1A4.85,4.85,0,0,0,8,39.28l5.38-1.37a4.33,4.33,0,0,1,3.23.44l.6.35-4.83,2.47A7.39,7.39,0,0,1,9.05,42L7,42l2.27,1.25a5.87,5.87,0,0,0,4.27.54l6.87-1.75a4.7,4.7,0,0,1,3.5.48l.66.38-.2.22a4.29,4.29,0,0,1-2.17,1.22l-3.1.7a12.26,12.26,0,0,0-2.52.85l-.39.18a3.36,3.36,0,0,0-1.95,3v.93l1.49-1a4.42,4.42,0,0,1,2.4-.7h6.49a5.14,5.14,0,0,0,2.85-.87l2.21-1.5,2.24,3.11a12.56,12.56,0,0,0,2.64,2.66,2.94,2.94,0,0,0,2.42.49l-1.25-1.18a5.91,5.91,0,0,1-1.59-6L35,42.32a4.78,4.78,0,0,0,.09-2.46L34.65,38l.7.62a4,4,0,0,1,1.2,4.18l-.27.92a6.12,6.12,0,0,0-.18,2.59l.13.81,1.13-2a10.72,10.72,0,0,1,1.38-1.9l.95-1.06a8.67,8.67,0,0,0,2.19-4.86l.24-2.25a4.7,4.7,0,0,1,.17-.83h0a2.86,2.86,0,0,1,1.64-2.58l2.13-1-.64,1.07a6.62,6.62,0,0,0-.94,3.42v2.75a6.18,6.18,0,0,1-1.37,3.87L41,44.36a6.94,6.94,0,0,0-1.55,4.16l-.09,2.78L40,50a7.28,7.28,0,0,1,2.56-3l.58-.38a6.59,6.59,0,0,0,2.42-3l1.22-3a9,9,0,0,1,4-4.51l2.85-1.53a5.07,5.07,0,0,0,2.11-2.19L57,29.79a6.51,6.51,0,0,1,1.88-2.28l1.64-1.25ZM20.28,38l.38-1.2a5.82,5.82,0,0,0,0-3.62l-.64-2,2.52,2.34a6.73,6.73,0,0,1,2.1,4.17l.31,2.83Zm11.63,5.6-.43,1.66-.31-.51a5.31,5.31,0,0,0-2.05-1.94l-1.68-.91.08-.45a3.25,3.25,0,0,0-.28-2l-.48-1a4.17,4.17,0,0,1-.41-1.81h0A4.16,4.16,0,0,1,27,34.38l1-1.59.42,2.88a5.07,5.07,0,0,0,.9,2.2l2,2.76A3.58,3.58,0,0,1,31.91,43.6Z"/><path class="cls-2" d="M53.22,44.81l-.44,1a4.36,4.36,0,0,1-2.22,2.27l-2.27,1a7.18,7.18,0,0,0-3.52,3.42l-.43.88,1.25-.9a8.43,8.43,0,0,1,2.86-1.34l2.86-.75a3.56,3.56,0,0,0,2.46-2.23l.49-1.35a8.89,8.89,0,0,1,1.87-3l1.84-2-2.19.64A4,4,0,0,0,53.22,44.81Z"/><path class="cls-2" d="M53.18,38.21l-1.43.44a4.79,4.79,0,0,0-2.91,2.47L47.08,44.7a4.73,4.73,0,0,1-1.41,1.7l-1.54,1.14a3.51,3.51,0,0,0-1.37,2.33L42.35,53l1.49-2.34a8.55,8.55,0,0,1,2.38-2.45l3.09-2.1a4.31,4.31,0,0,0,1.58-2l.8-2a3.34,3.34,0,0,1,1.43-1.67l1.41-.81a6,6,0,0,0,2.37-2.45l1.51-2.88-4,3.3A3.48,3.48,0,0,1,53.18,38.21Z"/><path class="cls-3" d="M41.05,27.51l-.15.06-.79-2a.34.34,0,1,1,.63-.25l.14.36a3.31,3.31,0,0,1,.17,1.84Z"/><path class="cls-4" d="M46.18,25l-2.66-.4a6.44,6.44,0,0,0-1.86,0l.73.77a2.07,2.07,0,0,1-.75,3.36h0a2.07,2.07,0,0,1-2.83-2l0-1.14a6.82,6.82,0,0,0-2,2.09l-1,1.54a.46.46,0,0,0,.25.68,9.08,9.08,0,0,0,10.44-4.25A.46.46,0,0,0,46.18,25Z"/><path class="cls-4" d="M29.77,27.72a6.82,6.82,0,0,0-2.05-2.09l0,1.14a2.07,2.07,0,0,1-2.83,2h0a2.07,2.07,0,0,1-.75-3.36l.73-.77a6.45,6.45,0,0,0-1.86,0l-2.66.4a.45.45,0,0,0-.32.67,8.94,8.94,0,0,0,4.59,4,9,9,0,0,0,5.84.26.46.46,0,0,0,.25-.68Z"/><path class="cls-3" d="M25.5,27.51l.16.06.78-2a.34.34,0,0,0-.19-.44.34.34,0,0,0-.44.19l-.14.36a3.31,3.31,0,0,0-.17,1.84Z"/><path class="cls-2" d="M80.5,25.22a1.78,1.78,0,1,0-1.76-1.78A1.76,1.76,0,0,0,80.5,25.22Z"/><path class="cls-2" d="M117.74,42.22A1.78,1.78,0,1,0,116,40.45,1.76,1.76,0,0,0,117.74,42.22Z"/><path class="cls-2" d="M88.26,36.44a4.16,4.16,0,0,0,2.48-.78c0,1.15-.41,2.43-2.2,2.43A1.77,1.77,0,0,1,86.79,37H83.64c.29,2.26,2.26,3.85,4.9,3.85,3.21,0,5.15-2.14,5.15-5.61V31.22a5.11,5.11,0,1,0-10.22,0A5,5,0,0,0,88.26,36.44Zm.33-7.69a2.33,2.33,0,0,1,2.15,2.49,2.3,2.3,0,0,1-2.15,2.44,2.27,2.27,0,0,1-2.15-2.44A2.3,2.3,0,0,1,88.59,28.75Z"/><rect class="cls-2" x="79.02" y="26.18" width="2.95" height="10.06"/><path class="cls-2" d="M72.52,44.68c-2.11-.5-3.18-1.06-3.18-2,0-.72.81-1.35,2.12-1.35a2.19,2.19,0,0,1,2.23,2h3.42c0-2.8-2.25-4.64-5.63-4.64s-5.57,1.8-5.57,4.4,2.26,3.66,4.44,4.18,3.5.82,3.5,1.92c0,.91-.84,1.63-2.2,1.63a2.39,2.39,0,0,1-2.5-2.39H65.73c-.1,3.36,2.62,5.16,5.71,5.16,3.52,0,5.91-1.78,5.91-4.56C77.35,46,74.64,45.19,72.52,44.68Z"/><polygon class="cls-2" points="73.92 30.44 69.31 22.08 66.39 22.08 66.39 36.24 69.35 36.24 69.35 27.87 73.98 36.24 76.9 36.24 76.9 22.08 73.92 22.08 73.92 30.44"/><path class="cls-2" d="M107.13,50.05V48.23a5.21,5.21,0,1,0-10.41,0,5.08,5.08,0,0,0,4.88,5.22,3.69,3.69,0,0,0,3-1.29,2,2,0,0,0,2.19,1.29,4.55,4.55,0,0,0,1.3-.2V51C107.37,51,107.14,50.8,107.13,50.05Zm-5.19.63a2.34,2.34,0,0,1-2.25-2.44,2.37,2.37,0,0,1,2.25-2.49,2.4,2.4,0,0,1,2.24,2.49A2.36,2.36,0,0,1,101.94,50.68Z"/><path class="cls-2" d="M89.75,51c-.71,0-1-.2-1-1V48.23a5.21,5.21,0,1,0-10.41,0,5.08,5.08,0,0,0,4.88,5.22,3.67,3.67,0,0,0,3-1.29,2,2,0,0,0,2.2,1.29,4.42,4.42,0,0,0,1.29-.2Zm-6.15-.32a2.34,2.34,0,0,1-2.24-2.44,2.37,2.37,0,0,1,2.24-2.49,2.4,2.4,0,0,1,2.25,2.49A2.36,2.36,0,0,1,83.6,50.68Z"/><rect class="cls-2" x="116.26" y="43.19" width="2.95" height="10.06"/><path class="cls-2" d="M109.36,47.47v5.78h3V47.41c0-1.07.94-1.9,2.6-1.49V43a6.39,6.39,0,0,0-1-.07A4.24,4.24,0,0,0,109.36,47.47Z"/><path class="cls-2" d="M98.58,30.41a1.5,1.5,0,0,1,1.6-1.57,1.42,1.42,0,0,1,1.53,1.57v5.83h3V30.41c0-2.67-1.67-4.47-4.15-4.47a3.93,3.93,0,0,0-1.94.53V21.88h-3V36.24h3Z"/><path class="cls-2" d="M112.08,36.38V33.47c-1.66.41-2.6-.42-2.59-1.5V28.86H112V26.18h-2.47v-3h-3v8.73C106.53,35.17,108.94,36.81,112.08,36.38Z"/><path class="cls-2" d="M94,53.25V45.87h2.33V43.19H94c0-1.07.93-1.72,2.6-1.3V39C93.43,38.55,91,40.19,91,43.44v9.81Z"/></svg>